<svg xmlns="http://www.w3.org/2000/svg" width="118" height="76" fill="none" viewBox="0 0 118 76"><path fill="url(#paint0_radial)" d="M27.8691 68.4733C27.2716 68.0418 26.5141 67.8959 25.7991 68.0746L10.7686 71.8323C9.32406 70.8523 7.72438 68.8973 6.28295 65.9573C4.64582 62.6181 3.3877 58.3567 2.82396 53.8052C1.73666 45.0267 3.29162 35.8918 8.72524 30.1943L20.9502 32.4582C22.1602 32.6823 23.3533 31.9925 23.7629 30.8321C25.5985 25.6313 32.5256 14.9311 45.1893 13.4838C58.3379 11.9811 67.5325 6.40877 71.589 2.80768C73.7406 3.69907 75.1686 5.71042 75.0353 7.84405C74.8793 10.3396 72.4733 14.5261 63.008 18.1666C61.8836 18.5991 61.2275 19.7719 61.4474 20.9564C61.6674 22.1408 62.7007 23 63.9054 23H109.905C112.557 23 113.88 23.7878 114.472 24.4751C115.044 25.1393 115.281 26.1072 114.938 27.3185C114.243 29.7698 111.037 33 104.905 33H72.9054C72.0286 33 71.2159 33.4593 70.7636 34.2105C70.3114 34.9616 70.2857 35.8948 70.6959 36.6697C71.344 37.8937 72.1163 39.8917 72.3341 41.7965C72.5595 43.7678 72.14 44.9282 71.3706 45.5266C71.2887 45.5903 71.2109 45.6589 71.1376 45.7322C69.8628 47.0071 68.9858 48.5425 69.3207 50.3847C69.4623 51.1633 69.7944 51.7948 70.063 52.2389C70.2345 52.5225 70.4694 52.8655 70.6495 53.1282C70.6931 53.1919 70.7335 53.2509 70.769 53.3031C70.7781 53.3473 70.793 53.4395 70.7968 53.5937C70.8055 53.9396 70.7527 54.4279 70.6051 55.0187C70.3062 56.2142 69.7017 57.5026 68.9532 58.4383C68.8895 58.5179 68.8267 58.5964 68.7647 58.6737C67.9511 59.6891 67.2919 60.5118 66.9193 61.257C66.4005 62.2947 66.4032 63.203 66.4052 63.8793C66.4053 63.9204 66.4054 63.9606 66.4054 64C66.4054 64.7186 66.3981 66.2669 65.8942 67.8793C65.4006 69.4588 64.4949 70.9102 62.7874 71.7639C61.9879 72.1637 59.9939 72.638 56.9598 72.9337C54.0446 73.2177 50.4796 73.3101 46.7782 73.128C43.074 72.9458 39.2917 72.4917 35.927 71.7061C32.5246 70.9117 29.7342 69.8203 27.8691 68.4733Z"/><path fill="url(#paint1_radial)" fill-opacity=".75" d="M27.8691 68.4733C27.2716 68.0418 26.5141 67.8959 25.7991 68.0746L10.7686 71.8323C9.32406 70.8523 7.72438 68.8973 6.28295 65.9573C4.64582 62.6181 3.3877 58.3567 2.82396 53.8052C1.73666 45.0267 3.29162 35.8918 8.72524 30.1943L20.9502 32.4582C22.1602 32.6823 23.3533 31.9925 23.7629 30.8321C25.5985 25.6313 32.5256 14.9311 45.1893 13.4838C58.3379 11.9811 67.5325 6.40877 71.589 2.80768C73.7406 3.69907 75.1686 5.71042 75.0353 7.84405C74.8793 10.3396 72.4733 14.5261 63.008 18.1666C61.8836 18.5991 61.2275 19.7719 61.4474 20.9564C61.6674 22.1408 62.7007 23 63.9054 23H109.905C112.557 23 113.88 23.7878 114.472 24.4751C115.044 25.1393 115.281 26.1072 114.938 27.3185C114.243 29.7698 111.037 33 104.905 33H72.9054C72.0286 33 71.2159 33.4593 70.7636 34.2105C70.3114 34.9616 70.2857 35.8948 70.6959 36.6697C71.344 37.8937 72.1163 39.8917 72.3341 41.7965C72.5595 43.7678 72.14 44.9282 71.3706 45.5266C71.2887 45.5903 71.2109 45.6589 71.1376 45.7322C69.8628 47.0071 68.9858 48.5425 69.3207 50.3847C69.4623 51.1633 69.7944 51.7948 70.063 52.2389C70.2345 52.5225 70.4694 52.8655 70.6495 53.1282C70.6931 53.1919 70.7335 53.2509 70.769 53.3031C70.7781 53.3473 70.793 53.4395 70.7968 53.5937C70.8055 53.9396 70.7527 54.4279 70.6051 55.0187C70.3062 56.2142 69.7017 57.5026 68.9532 58.4383C68.8895 58.5179 68.8267 58.5964 68.7647 58.6737C67.9511 59.6891 67.2919 60.5118 66.9193 61.257C66.4005 62.2947 66.4032 63.203 66.4052 63.8793C66.4053 63.9204 66.4054 63.9606 66.4054 64C66.4054 64.7186 66.3981 66.2669 65.8942 67.8793C65.4006 69.4588 64.4949 70.9102 62.7874 71.7639C61.9879 72.1637 59.9939 72.638 56.9598 72.9337C54.0446 73.2177 50.4796 73.3101 46.7782 73.128C43.074 72.9458 39.2917 72.4917 35.927 71.7061C32.5246 70.9117 29.7342 69.8203 27.8691 68.4733Z"/><path fill="url(#paint2_radial)" fill-opacity=".75" d="M27.8691 68.4733C27.2716 68.0418 26.5141 67.8959 25.7991 68.0746L10.7686 71.8323C9.32406 70.8523 7.72438 68.8973 6.28295 65.9573C4.64582 62.6181 3.3877 58.3567 2.82396 53.8052C1.73666 45.0267 3.29162 35.8918 8.72524 30.1943L20.9502 32.4582C22.1602 32.6823 23.3533 31.9925 23.7629 30.8321C25.5985 25.6313 32.5256 14.9311 45.1893 13.4838C58.3379 11.9811 67.5325 6.40877 71.589 2.80768C73.7406 3.69907 75.1686 5.71042 75.0353 7.84405C74.8793 10.3396 72.4733 14.5261 63.008 18.1666C61.8836 18.5991 61.2275 19.7719 61.4474 20.9564C61.6674 22.1408 62.7007 23 63.9054 23H109.905C112.557 23 113.88 23.7878 114.472 24.4751C115.044 25.1393 115.281 26.1072 114.938 27.3185C114.243 29.7698 111.037 33 104.905 33H72.9054C72.0286 33 71.2159 33.4593 70.7636 34.2105C70.3114 34.9616 70.2857 35.8948 70.6959 36.6697C71.344 37.8937 72.1163 39.8917 72.3341 41.7965C72.5595 43.7678 72.14 44.9282 71.3706 45.5266C71.2887 45.5903 71.2109 45.6589 71.1376 45.7322C69.8628 47.0071 68.9858 48.5425 69.3207 50.3847C69.4623 51.1633 69.7944 51.7948 70.063 52.2389C70.2345 52.5225 70.4694 52.8655 70.6495 53.1282C70.6931 53.1919 70.7335 53.2509 70.769 53.3031C70.7781 53.3473 70.793 53.4395 70.7968 53.5937C70.8055 53.9396 70.7527 54.4279 70.6051 55.0187C70.3062 56.2142 69.7017 57.5026 68.9532 58.4383C68.8895 58.5179 68.8267 58.5964 68.7647 58.6737C67.9511 59.6891 67.2919 60.5118 66.9193 61.257C66.4005 62.2947 66.4032 63.203 66.4052 63.8793C66.4053 63.9204 66.4054 63.9606 66.4054 64C66.4054 64.7186 66.3981 66.2669 65.8942 67.8793C65.4006 69.4588 64.4949 70.9102 62.7874 71.7639C61.9879 72.1637 59.9939 72.638 56.9598 72.9337C54.0446 73.2177 50.4796 73.3101 46.7782 73.128C43.074 72.9458 39.2917 72.4917 35.927 71.7061C32.5246 70.9117 29.7342 69.8203 27.8691 68.4733Z"/><path fill="url(#paint3_radial)" fill-opacity=".75" d="M27.8691 68.4733C27.2716 68.0418 26.5141 67.8959 25.7991 68.0746L10.7686 71.8323C9.32406 70.8523 7.72438 68.8973 6.28295 65.9573C4.64582 62.6181 3.3877 58.3567 2.82396 53.8052C1.73666 45.0267 3.29162 35.8918 8.72524 30.1943L20.9502 32.4582C22.1602 32.6823 23.3533 31.9925 23.7629 30.8321C25.5985 25.6313 32.5256 14.9311 45.1893 13.4838C58.3379 11.9811 67.5325 6.40877 71.589 2.80768C73.7406 3.69907 75.1686 5.71042 75.0353 7.84405C74.8793 10.3396 72.4733 14.5261 63.008 18.1666C61.8836 18.5991 61.2275 19.7719 61.4474 20.9564C61.6674 22.1408 62.7007 23 63.9054 23H109.905C112.557 23 113.88 23.7878 114.472 24.4751C115.044 25.1393 115.281 26.1072 114.938 27.3185C114.243 29.7698 111.037 33 104.905 33H72.9054C72.0286 33 71.2159 33.4593 70.7636 34.2105C70.3114 34.9616 70.2857 35.8948 70.6959 36.6697C71.344 37.8937 72.1163 39.8917 72.3341 41.7965C72.5595 43.7678 72.14 44.9282 71.3706 45.5266C71.2887 45.5903 71.2109 45.6589 71.1376 45.7322C69.8628 47.0071 68.9858 48.5425 69.3207 50.3847C69.4623 51.1633 69.7944 51.7948 70.063 52.2389C70.2345 52.5225 70.4694 52.8655 70.6495 53.1282C70.6931 53.1919 70.7335 53.2509 70.769 53.3031C70.7781 53.3473 70.793 53.4395 70.7968 53.5937C70.8055 53.9396 70.7527 54.4279 70.6051 55.0187C70.3062 56.2142 69.7017 57.5026 68.9532 58.4383C68.8895 58.5179 68.8267 58.5964 68.7647 58.6737C67.9511 59.6891 67.2919 60.5118 66.9193 61.257C66.4005 62.2947 66.4032 63.203 66.4052 63.8793C66.4053 63.9204 66.4054 63.9606 66.4054 64C66.4054 64.7186 66.3981 66.2669 65.8942 67.8793C65.4006 69.4588 64.4949 70.9102 62.7874 71.7639C61.9879 72.1637 59.9939 72.638 56.9598 72.9337C54.0446 73.2177 50.4796 73.3101 46.7782 73.128C43.074 72.9458 39.2917 72.4917 35.927 71.7061C32.5246 70.9117 29.7342 69.8203 27.8691 68.4733Z"/><path fill="url(#paint4_radial)" fill-opacity=".75" d="M27.8691 68.4733C27.2716 68.0418 26.5141 67.8959 25.7991 68.0746L10.7686 71.8323C9.32406 70.8523 7.72438 68.8973 6.28295 65.9573C4.64582 62.6181 3.3877 58.3567 2.82396 53.8052C1.73666 45.0267 3.29162 35.8918 8.72524 30.1943L20.9502 32.4582C22.1602 32.6823 23.3533 31.9925 23.7629 30.8321C25.5985 25.6313 32.5256 14.9311 45.1893 13.4838C58.3379 11.9811 67.5325 6.40877 71.589 2.80768C73.7406 3.69907 75.1686 5.71042 75.0353 7.84405C74.8793 10.3396 72.4733 14.5261 63.008 18.1666C61.8836 18.5991 61.2275 19.7719 61.4474 20.9564C61.6674 22.1408 62.7007 23 63.9054 23H109.905C112.557 23 113.88 23.7878 114.472 24.4751C115.044 25.1393 115.281 26.1072 114.938 27.3185C114.243 29.7698 111.037 33 104.905 33H72.9054C72.0286 33 71.2159 33.4593 70.7636 34.2105C70.3114 34.9616 70.2857 35.8948 70.6959 36.6697C71.344 37.8937 72.1163 39.8917 72.3341 41.7965C72.5595 43.7678 72.14 44.9282 71.3706 45.5266C71.2887 45.5903 71.2109 45.6589 71.1376 45.7322C69.8628 47.0071 68.9858 48.5425 69.3207 50.3847C69.4623 51.1633 69.7944 51.7948 70.063 52.2389C70.2345 52.5225 70.4694 52.8655 70.6495 53.1282C70.6931 53.1919 70.7335 53.2509 70.769 53.3031C70.7781 53.3473 70.793 53.4395 70.7968 53.5937C70.8055 53.9396 70.7527 54.4279 70.6051 55.0187C70.3062 56.2142 69.7017 57.5026 68.9532 58.4383C68.8895 58.5179 68.8267 58.5964 68.7647 58.6737C67.9511 59.6891 67.2919 60.5118 66.9193 61.257C66.4005 62.2947 66.4032 63.203 66.4052 63.8793C66.4053 63.9204 66.4054 63.9606 66.4054 64C66.4054 64.7186 66.3981 66.2669 65.8942 67.8793C65.4006 69.4588 64.4949 70.9102 62.7874 71.7639C61.9879 72.1637 59.9939 72.638 56.9598 72.9337C54.0446 73.2177 50.4796 73.3101 46.7782 73.128C43.074 72.9458 39.2917 72.4917 35.927 71.7061C32.5246 70.9117 29.7342 69.8203 27.8691 68.4733Z"/><path fill="url(#paint5_radial)" fill-opacity=".75" d="M27.8691 68.4733C27.2716 68.0418 26.5141 67.8959 25.7991 68.0746L10.7686 71.8323C9.32406 70.8523 7.72438 68.8973 6.28295 65.9573C4.64582 62.6181 3.3877 58.3567 2.82396 53.8052C1.73666 45.0267 3.29162 35.8918 8.72524 30.1943L20.9502 32.4582C22.1602 32.6823 23.3533 31.9925 23.7629 30.8321C25.5985 25.6313 32.5256 14.9311 45.1893 13.4838C58.3379 11.9811 67.5325 6.40877 71.589 2.80768C73.7406 3.69907 75.1686 5.71042 75.0353 7.84405C74.8793 10.3396 72.4733 14.5261 63.008 18.1666C61.8836 18.5991 61.2275 19.7719 61.4474 20.9564C61.6674 22.1408 62.7007 23 63.9054 23H109.905C112.557 23 113.88 23.7878 114.472 24.4751C115.044 25.1393 115.281 26.1072 114.938 27.3185C114.243 29.7698 111.037 33 104.905 33H72.9054C72.0286 33 71.2159 33.4593 70.7636 34.2105C70.3114 34.9616 70.2857 35.8948 70.6959 36.6697C71.344 37.8937 72.1163 39.8917 72.3341 41.7965C72.5595 43.7678 72.14 44.9282 71.3706 45.5266C71.2887 45.5903 71.2109 45.6589 71.1376 45.7322C69.8628 47.0071 68.9858 48.5425 69.3207 50.3847C69.4623 51.1633 69.7944 51.7948 70.063 52.2389C70.2345 52.5225 70.4694 52.8655 70.6495 53.1282C70.6931 53.1919 70.7335 53.2509 70.769 53.3031C70.7781 53.3473 70.793 53.4395 70.7968 53.5937C70.8055 53.9396 70.7527 54.4279 70.6051 55.0187C70.3062 56.2142 69.7017 57.5026 68.9532 58.4383C68.8895 58.5179 68.8267 58.5964 68.7647 58.6737C67.9511 59.6891 67.2919 60.5118 66.9193 61.257C66.4005 62.2947 66.4032 63.203 66.4052 63.8793C66.4053 63.9204 66.4054 63.9606 66.4054 64C66.4054 64.7186 66.3981 66.2669 65.8942 67.8793C65.4006 69.4588 64.4949 70.9102 62.7874 71.7639C61.9879 72.1637 59.9939 72.638 56.9598 72.9337C54.0446 73.2177 50.4796 73.3101 46.7782 73.128C43.074 72.9458 39.2917 72.4917 35.927 71.7061C32.5246 70.9117 29.7342 69.8203 27.8691 68.4733Z"/><path fill="url(#paint6_radial)" d="M27.8691 68.4733C27.2716 68.0418 26.5141 67.8959 25.7991 68.0746L10.7686 71.8323C9.32406 70.8523 7.72438 68.8973 6.28295 65.9573C4.64582 62.6181 3.3877 58.3567 2.82396 53.8052C1.73666 45.0267 3.29162 35.8918 8.72524 30.1943L20.9502 32.4582C22.1602 32.6823 23.3533 31.9925 23.7629 30.8321C25.5985 25.6313 32.5256 14.9311 45.1893 13.4838C58.3379 11.9811 67.5325 6.40877 71.589 2.80768C73.7406 3.69907 75.1686 5.71042 75.0353 7.84405C74.8793 10.3396 72.4733 14.5261 63.008 18.1666C61.8836 18.5991 61.2275 19.7719 61.4474 20.9564C61.6674 22.1408 62.7007 23 63.9054 23H109.905C112.557 23 113.88 23.7878 114.472 24.4751C115.044 25.1393 115.281 26.1072 114.938 27.3185C114.243 29.7698 111.037 33 104.905 33H72.9054C72.0286 33 71.2159 33.4593 70.7636 34.2105C70.3114 34.9616 70.2857 35.8948 70.6959 36.6697C71.344 37.8937 72.1163 39.8917 72.3341 41.7965C72.5595 43.7678 72.14 44.9282 71.3706 45.5266C71.2887 45.5903 71.2109 45.6589 71.1376 45.7322C69.8628 47.0071 68.9858 48.5425 69.3207 50.3847C69.4623 51.1633 69.7944 51.7948 70.063 52.2389C70.2345 52.5225 70.4694 52.8655 70.6495 53.1282C70.6931 53.1919 70.7335 53.2509 70.769 53.3031C70.7781 53.3473 70.793 53.4395 70.7968 53.5937C70.8055 53.9396 70.7527 54.4279 70.6051 55.0187C70.3062 56.2142 69.7017 57.5026 68.9532 58.4383C68.8895 58.5179 68.8267 58.5964 68.7647 58.6737C67.9511 59.6891 67.2919 60.5118 66.9193 61.257C66.4005 62.2947 66.4032 63.203 66.4052 63.8793C66.4053 63.9204 66.4054 63.9606 66.4054 64C66.4054 64.7186 66.3981 66.2669 65.8942 67.8793C65.4006 69.4588 64.4949 70.9102 62.7874 71.7639C61.9879 72.1637 59.9939 72.638 56.9598 72.9337C54.0446 73.2177 50.4796 73.3101 46.7782 73.128C43.074 72.9458 39.2917 72.4917 35.927 71.7061C32.5246 70.9117 29.7342 69.8203 27.8691 68.4733Z"/><path fill="url(#paint7_linear)" fill-opacity=".5" d="M27.8691 68.4733C27.2716 68.0418 26.5141 67.8959 25.7991 68.0746L10.7686 71.8323C9.32406 70.8523 7.72438 68.8973 6.28295 65.9573C4.64582 62.6181 3.3877 58.3567 2.82396 53.8052C1.73666 45.0267 3.29162 35.8918 8.72524 30.1943L20.9502 32.4582C22.1602 32.6823 23.3533 31.9925 23.7629 30.8321C25.5985 25.6313 32.5256 14.9311 45.1893 13.4838C58.3379 11.9811 67.5325 6.40877 71.589 2.80768C73.7406 3.69907 75.1686 5.71042 75.0353 7.84405C74.8793 10.3396 72.4733 14.5261 63.008 18.1666C61.8836 18.5991 61.2275 19.7719 61.4474 20.9564C61.6674 22.1408 62.7007 23 63.9054 23H109.905C112.557 23 113.88 23.7878 114.472 24.4751C115.044 25.1393 115.281 26.1072 114.938 27.3185C114.243 29.7698 111.037 33 104.905 33H72.9054C72.0286 33 71.2159 33.4593 70.7636 34.2105C70.3114 34.9616 70.2857 35.8948 70.6959 36.6697C71.344 37.8937 72.1163 39.8917 72.3341 41.7965C72.5595 43.7678 72.14 44.9282 71.3706 45.5266C71.2887 45.5903 71.2109 45.6589 71.1376 45.7322C69.8628 47.0071 68.9858 48.5425 69.3207 50.3847C69.4623 51.1633 69.7944 51.7948 70.063 52.2389C70.2345 52.5225 70.4694 52.8655 70.6495 53.1282C70.6931 53.1919 70.7335 53.2509 70.769 53.3031C70.7781 53.3473 70.793 53.4395 70.7968 53.5937C70.8055 53.9396 70.7527 54.4279 70.6051 55.0187C70.3062 56.2142 69.7017 57.5026 68.9532 58.4383C68.8895 58.5179 68.8267 58.5964 68.7647 58.6737C67.9511 59.6891 67.2919 60.5118 66.9193 61.257C66.4005 62.2947 66.4032 63.203 66.4052 63.8793C66.4053 63.9204 66.4054 63.9606 66.4054 64C66.4054 64.7186 66.3981 66.2669 65.8942 67.8793C65.4006 69.4588 64.4949 70.9102 62.7874 71.7639C61.9879 72.1637 59.9939 72.638 56.9598 72.9337C54.0446 73.2177 50.4796 73.3101 46.7782 73.128C43.074 72.9458 39.2917 72.4917 35.927 71.7061C32.5246 70.9117 29.7342 69.8203 27.8691 68.4733Z"/><path fill="url(#paint8_linear)" fill-opacity=".15" d="M27.8691 68.4733C27.2716 68.0418 26.5141 67.8959 25.7991 68.0746L10.7686 71.8323C9.32406 70.8523 7.72438 68.8973 6.28295 65.9573C4.64582 62.6181 3.3877 58.3567 2.82396 53.8052C1.73666 45.0267 3.29162 35.8918 8.72524 30.1943L20.9502 32.4582C22.1602 32.6823 23.3533 31.9925 23.7629 30.8321C25.5985 25.6313 32.5256 14.9311 45.1893 13.4838C58.3379 11.9811 67.5325 6.40877 71.589 2.80768C73.7406 3.69907 75.1686 5.71042 75.0353 7.84405C74.8793 10.3396 72.4733 14.5261 63.008 18.1666C61.8836 18.5991 61.2275 19.7719 61.4474 20.9564C61.6674 22.1408 62.7007 23 63.9054 23H109.905C112.557 23 113.88 23.7878 114.472 24.4751C115.044 25.1393 115.281 26.1072 114.938 27.3185C114.243 29.7698 111.037 33 104.905 33H72.9054C72.0286 33 71.2159 33.4593 70.7636 34.2105C70.3114 34.9616 70.2857 35.8948 70.6959 36.6697C71.344 37.8937 72.1163 39.8917 72.3341 41.7965C72.5595 43.7678 72.14 44.9282 71.3706 45.5266C71.2887 45.5903 71.2109 45.6589 71.1376 45.7322C69.8628 47.0071 68.9858 48.5425 69.3207 50.3847C69.4623 51.1633 69.7944 51.7948 70.063 52.2389C70.2345 52.5225 70.4694 52.8655 70.6495 53.1282C70.6931 53.1919 70.7335 53.2509 70.769 53.3031C70.7781 53.3473 70.793 53.4395 70.7968 53.5937C70.8055 53.9396 70.7527 54.4279 70.6051 55.0187C70.3062 56.2142 69.7017 57.5026 68.9532 58.4383C68.8895 58.5179 68.8267 58.5964 68.7647 58.6737C67.9511 59.6891 67.2919 60.5118 66.9193 61.257C66.4005 62.2947 66.4032 63.203 66.4052 63.8793C66.4053 63.9204 66.4054 63.9606 66.4054 64C66.4054 64.7186 66.3981 66.2669 65.8942 67.8793C65.4006 69.4588 64.4949 70.9102 62.7874 71.7639C61.9879 72.1637 59.9939 72.638 56.9598 72.9337C54.0446 73.2177 50.4796 73.3101 46.7782 73.128C43.074 72.9458 39.2917 72.4917 35.927 71.7061C32.5246 70.9117 29.7342 69.8203 27.8691 68.4733Z"/><path stroke="url(#paint9_radial)" stroke-linecap="round" stroke-linejoin="round" stroke-width="5" d="M27.8691 68.4733C27.2716 68.0418 26.5141 67.8959 25.7991 68.0746L10.7686 71.8323C9.32406 70.8523 7.72438 68.8973 6.28295 65.9573C4.64582 62.6181 3.3877 58.3567 2.82396 53.8052C1.73666 45.0267 3.29162 35.8918 8.72524 30.1943L20.9502 32.4582C22.1602 32.6823 23.3533 31.9925 23.7629 30.8321C25.5985 25.6313 32.5256 14.9311 45.1893 13.4838C58.3379 11.9811 67.5325 6.40877 71.589 2.80768C73.7406 3.69907 75.1686 5.71042 75.0353 7.84405C74.8793 10.3396 72.4733 14.5261 63.008 18.1666C61.8836 18.5991 61.2275 19.7719 61.4474 20.9564C61.6674 22.1408 62.7007 23 63.9054 23H109.905C112.557 23 113.88 23.7878 114.472 24.4751C115.044 25.1393 115.281 26.1072 114.938 27.3185C114.243 29.7698 111.037 33 104.905 33H72.9054C72.0286 33 71.2159 33.4593 70.7636 34.2105C70.3114 34.9616 70.2857 35.8948 70.6959 36.6697C71.344 37.8937 72.1163 39.8917 72.3341 41.7965C72.5595 43.7678 72.14 44.9282 71.3706 45.5266C71.2887 45.5903 71.2109 45.6589 71.1376 45.7322C69.8628 47.0071 68.9858 48.5425 69.3207 50.3847C69.4623 51.1633 69.7944 51.7948 70.063 52.2389C70.2345 52.5225 70.4694 52.8655 70.6495 53.1282C70.6931 53.1919 70.7335 53.2509 70.769 53.3031C70.7781 53.3473 70.793 53.4395 70.7968 53.5937C70.8055 53.9396 70.7527 54.4279 70.6051 55.0187C70.3062 56.2142 69.7017 57.5026 68.9532 58.4383C68.8895 58.5179 68.8267 58.5964 68.7647 58.6737C67.9511 59.6891 67.2919 60.5118 66.9193 61.257C66.4005 62.2947 66.4032 63.203 66.4052 63.8793C66.4053 63.9204 66.4054 63.9606 66.4054 64C66.4054 64.7186 66.3981 66.2669 65.8942 67.8793C65.4006 69.4588 64.4949 70.9102 62.7874 71.7639C61.9879 72.1637 59.9939 72.638 56.9598 72.9337C54.0446 73.2177 50.4796 73.3101 46.7782 73.128C43.074 72.9458 39.2917 72.4917 35.927 71.7061C32.5246 70.9117 29.7342 69.8203 27.8691 68.4733Z"/><path stroke="url(#paint10_radial)" stroke-linecap="round" stroke-linejoin="round" stroke-width="5" d="M27.8691 68.4733C27.2716 68.0418 26.5141 67.8959 25.7991 68.0746L10.7686 71.8323C9.32406 70.8523 7.72438 68.8973 6.28295 65.9573C4.64582 62.6181 3.3877 58.3567 2.82396 53.8052C1.73666 45.0267 3.29162 35.8918 8.72524 30.1943L20.9502 32.4582C22.1602 32.6823 23.3533 31.9925 23.7629 30.8321C25.5985 25.6313 32.5256 14.9311 45.1893 13.4838C58.3379 11.9811 67.5325 6.40877 71.589 2.80768C73.7406 3.69907 75.1686 5.71042 75.0353 7.84405C74.8793 10.3396 72.4733 14.5261 63.008 18.1666C61.8836 18.5991 61.2275 19.7719 61.4474 20.9564C61.6674 22.1408 62.7007 23 63.9054 23H109.905C112.557 23 113.88 23.7878 114.472 24.4751C115.044 25.1393 115.281 26.1072 114.938 27.3185C114.243 29.7698 111.037 33 104.905 33H72.9054C72.0286 33 71.2159 33.4593 70.7636 34.2105C70.3114 34.9616 70.2857 35.8948 70.6959 36.6697C71.344 37.8937 72.1163 39.8917 72.3341 41.7965C72.5595 43.7678 72.14 44.9282 71.3706 45.5266C71.2887 45.5903 71.2109 45.6589 71.1376 45.7322C69.8628 47.0071 68.9858 48.5425 69.3207 50.3847C69.4623 51.1633 69.7944 51.7948 70.063 52.2389C70.2345 52.5225 70.4694 52.8655 70.6495 53.1282C70.6931 53.1919 70.7335 53.2509 70.769 53.3031C70.7781 53.3473 70.793 53.4395 70.7968 53.5937C70.8055 53.9396 70.7527 54.4279 70.6051 55.0187C70.3062 56.2142 69.7017 57.5026 68.9532 58.4383C68.8895 58.5179 68.8267 58.5964 68.7647 58.6737C67.9511 59.6891 67.2919 60.5118 66.9193 61.257C66.4005 62.2947 66.4032 63.203 66.4052 63.8793C66.4053 63.9204 66.4054 63.9606 66.4054 64C66.4054 64.7186 66.3981 66.2669 65.8942 67.8793C65.4006 69.4588 64.4949 70.9102 62.7874 71.7639C61.9879 72.1637 59.9939 72.638 56.9598 72.9337C54.0446 73.2177 50.4796 73.3101 46.7782 73.128C43.074 72.9458 39.2917 72.4917 35.927 71.7061C32.5246 70.9117 29.7342 69.8203 27.8691 68.4733Z"/><path stroke="url(#paint11_radial)" stroke-linecap="round" stroke-linejoin="round" stroke-width="5" d="M27.8691 68.4733C27.2716 68.0418 26.5141 67.8959 25.7991 68.0746L10.7686 71.8323C9.32406 70.8523 7.72438 68.8973 6.28295 65.9573C4.64582 62.6181 3.3877 58.3567 2.82396 53.8052C1.73666 45.0267 3.29162 35.8918 8.72524 30.1943L20.9502 32.4582C22.1602 32.6823 23.3533 31.9925 23.7629 30.8321C25.5985 25.6313 32.5256 14.9311 45.1893 13.4838C58.3379 11.9811 67.5325 6.40877 71.589 2.80768C73.7406 3.69907 75.1686 5.71042 75.0353 7.84405C74.8793 10.3396 72.4733 14.5261 63.008 18.1666C61.8836 18.5991 61.2275 19.7719 61.4474 20.9564C61.6674 22.1408 62.7007 23 63.9054 23H109.905C112.557 23 113.88 23.7878 114.472 24.4751C115.044 25.1393 115.281 26.1072 114.938 27.3185C114.243 29.7698 111.037 33 104.905 33H72.9054C72.0286 33 71.2159 33.4593 70.7636 34.2105C70.3114 34.9616 70.2857 35.8948 70.6959 36.6697C71.344 37.8937 72.1163 39.8917 72.3341 41.7965C72.5595 43.7678 72.14 44.9282 71.3706 45.5266C71.2887 45.5903 71.2109 45.6589 71.1376 45.7322C69.8628 47.0071 68.9858 48.5425 69.3207 50.3847C69.4623 51.1633 69.7944 51.7948 70.063 52.2389C70.2345 52.5225 70.4694 52.8655 70.6495 53.1282C70.6931 53.1919 70.7335 53.2509 70.769 53.3031C70.7781 53.3473 70.793 53.4395 70.7968 53.5937C70.8055 53.9396 70.7527 54.4279 70.6051 55.0187C70.3062 56.2142 69.7017 57.5026 68.9532 58.4383C68.8895 58.5179 68.8267 58.5964 68.7647 58.6737C67.9511 59.6891 67.2919 60.5118 66.9193 61.257C66.4005 62.2947 66.4032 63.203 66.4052 63.8793C66.4053 63.9204 66.4054 63.9606 66.4054 64C66.4054 64.7186 66.3981 66.2669 65.8942 67.8793C65.4006 69.4588 64.4949 70.9102 62.7874 71.7639C61.9879 72.1637 59.9939 72.638 56.9598 72.9337C54.0446 73.2177 50.4796 73.3101 46.7782 73.128C43.074 72.9458 39.2917 72.4917 35.927 71.7061C32.5246 70.9117 29.7342 69.8203 27.8691 68.4733Z"/><path stroke="url(#paint12_radial)" stroke-linecap="round" stroke-linejoin="round" stroke-width="5" d="M27.8691 68.4733C27.2716 68.0418 26.5141 67.8959 25.7991 68.0746L10.7686 71.8323C9.32406 70.8523 7.72438 68.8973 6.28295 65.9573C4.64582 62.6181 3.3877 58.3567 2.82396 53.8052C1.73666 45.0267 3.29162 35.8918 8.72524 30.1943L20.9502 32.4582C22.1602 32.6823 23.3533 31.9925 23.7629 30.8321C25.5985 25.6313 32.5256 14.9311 45.1893 13.4838C58.3379 11.9811 67.5325 6.40877 71.589 2.80768C73.7406 3.69907 75.1686 5.71042 75.0353 7.84405C74.8793 10.3396 72.4733 14.5261 63.008 18.1666C61.8836 18.5991 61.2275 19.7719 61.4474 20.9564C61.6674 22.1408 62.7007 23 63.9054 23H109.905C112.557 23 113.88 23.7878 114.472 24.4751C115.044 25.1393 115.281 26.1072 114.938 27.3185C114.243 29.7698 111.037 33 104.905 33H72.9054C72.0286 33 71.2159 33.4593 70.7636 34.2105C70.3114 34.9616 70.2857 35.8948 70.6959 36.6697C71.344 37.8937 72.1163 39.8917 72.3341 41.7965C72.5595 43.7678 72.14 44.9282 71.3706 45.5266C71.2887 45.5903 71.2109 45.6589 71.1376 45.7322C69.8628 47.0071 68.9858 48.5425 69.3207 50.3847C69.4623 51.1633 69.7944 51.7948 70.063 52.2389C70.2345 52.5225 70.4694 52.8655 70.6495 53.1282C70.6931 53.1919 70.7335 53.2509 70.769 53.3031C70.7781 53.3473 70.793 53.4395 70.7968 53.5937C70.8055 53.9396 70.7527 54.4279 70.6051 55.0187C70.3062 56.2142 69.7017 57.5026 68.9532 58.4383C68.8895 58.5179 68.8267 58.5964 68.7647 58.6737C67.9511 59.6891 67.2919 60.5118 66.9193 61.257C66.4005 62.2947 66.4032 63.203 66.4052 63.8793C66.4053 63.9204 66.4054 63.9606 66.4054 64C66.4054 64.7186 66.3981 66.2669 65.8942 67.8793C65.4006 69.4588 64.4949 70.9102 62.7874 71.7639C61.9879 72.1637 59.9939 72.638 56.9598 72.9337C54.0446 73.2177 50.4796 73.3101 46.7782 73.128C43.074 72.9458 39.2917 72.4917 35.927 71.7061C32.5246 70.9117 29.7342 69.8203 27.8691 68.4733Z"/><path stroke="url(#paint13_radial)" stroke-linecap="round" stroke-linejoin="round" stroke-width="5" d="M27.8691 68.4733C27.2716 68.0418 26.5141 67.8959 25.7991 68.0746L10.7686 71.8323C9.32406 70.8523 7.72438 68.8973 6.28295 65.9573C4.64582 62.6181 3.3877 58.3567 2.82396 53.8052C1.73666 45.0267 3.29162 35.8918 8.72524 30.1943L20.9502 32.4582C22.1602 32.6823 23.3533 31.9925 23.7629 30.8321C25.5985 25.6313 32.5256 14.9311 45.1893 13.4838C58.3379 11.9811 67.5325 6.40877 71.589 2.80768C73.7406 3.69907 75.1686 5.71042 75.0353 7.84405C74.8793 10.3396 72.4733 14.5261 63.008 18.1666C61.8836 18.5991 61.2275 19.7719 61.4474 20.9564C61.6674 22.1408 62.7007 23 63.9054 23H109.905C112.557 23 113.88 23.7878 114.472 24.4751C115.044 25.1393 115.281 26.1072 114.938 27.3185C114.243 29.7698 111.037 33 104.905 33H72.9054C72.0286 33 71.2159 33.4593 70.7636 34.2105C70.3114 34.9616 70.2857 35.8948 70.6959 36.6697C71.344 37.8937 72.1163 39.8917 72.3341 41.7965C72.5595 43.7678 72.14 44.9282 71.3706 45.5266C71.2887 45.5903 71.2109 45.6589 71.1376 45.7322C69.8628 47.0071 68.9858 48.5425 69.3207 50.3847C69.4623 51.1633 69.7944 51.7948 70.063 52.2389C70.2345 52.5225 70.4694 52.8655 70.6495 53.1282C70.6931 53.1919 70.7335 53.2509 70.769 53.3031C70.7781 53.3473 70.793 53.4395 70.7968 53.5937C70.8055 53.9396 70.7527 54.4279 70.6051 55.0187C70.3062 56.2142 69.7017 57.5026 68.9532 58.4383C68.8895 58.5179 68.8267 58.5964 68.7647 58.6737C67.9511 59.6891 67.2919 60.5118 66.9193 61.257C66.4005 62.2947 66.4032 63.203 66.4052 63.8793C66.4053 63.9204 66.4054 63.9606 66.4054 64C66.4054 64.7186 66.3981 66.2669 65.8942 67.8793C65.4006 69.4588 64.4949 70.9102 62.7874 71.7639C61.9879 72.1637 59.9939 72.638 56.9598 72.9337C54.0446 73.2177 50.4796 73.3101 46.7782 73.128C43.074 72.9458 39.2917 72.4917 35.927 71.7061C32.5246 70.9117 29.7342 69.8203 27.8691 68.4733Z"/><defs><radialGradient id="paint0_radial" cx="0" cy="0" r="1" gradientTransform="translate(54 43) rotate(66.5713) scale(65.3911 101.552)" gradientUnits="userSpaceOnUse"><stop stop-color="#FFD664"/><stop offset=".432" stop-color="#F9CC5C"/><stop offset=".961" stop-color="#C46F0C"/></radialGradient><radialGradient id="paint1_radial" cx="0" cy="0" r="1" gradientTransform="translate(21 181.5) rotate(-81.7121) scale(128.34 199.312)" gradientUnits="userSpaceOnUse"><stop offset=".848" stop-color="#C0690E"/><stop offset="1" stop-color="#FFD767" stop-opacity=".25"/></radialGradient><radialGradient id="paint2_radial" cx="0" cy="0" r="1" gradientTransform="translate(82.5 61.5) rotate(-166.39) scale(48.8723 75.8985)" gradientUnits="userSpaceOnUse"><stop offset=".167" stop-color="#C46F0C"/><stop offset="1" stop-color="#FFD664" stop-opacity=".25"/></radialGradient><radialGradient id="paint3_radial" cx="0" cy="0" r="1" gradientTransform="translate(142 63) rotate(-133.493) scale(53.7587 83.4871)" gradientUnits="userSpaceOnUse"><stop stop-color="#C46F0C"/><stop offset=".635" stop-color="#C46F0C"/><stop offset="1" stop-color="#FFD664" stop-opacity=".6"/></radialGradient><radialGradient id="paint4_radial" cx="0" cy="0" r="1" gradientTransform="translate(94.5) rotate(117.962) scale(45.853 71.2096)" gradientUnits="userSpaceOnUse"><stop offset=".022" stop-color="#C46F0C"/><stop offset="1" stop-color="#fff" stop-opacity="0"/><stop offset="1" stop-color="#FFD767" stop-opacity=".25"/></radialGradient><radialGradient id="paint5_radial" cx="0" cy="0" r="1" gradientTransform="translate(77 18) rotate(118.301) scale(14.7648 22.9297)" gradientUnits="userSpaceOnUse"><stop stop-color="#C46F0C"/><stop offset="1" stop-color="#FFD664" stop-opacity=".25"/></radialGradient><radialGradient id="paint6_radial" cx="0" cy="0" r="1" gradientTransform="translate(53.5 38) rotate(-114.796) scale(94.1833 146.266)" gradientUnits="userSpaceOnUse"><stop stop-color="#FFD767" stop-opacity=".25"/><stop offset=".767" stop-color="#C46F0C"/></radialGradient><linearGradient id="paint7_linear" x1="59" x2="59" y1="22.5" y2="64.5" gradientUnits="userSpaceOnUse"><stop offset="0" stop-color="#FAC232" stop-opacity="0"/><stop offset=".385" stop-color="#FFBE02"/><stop offset=".651" stop-color="#FFC316"/><stop offset="1" stop-color="#FECA3D" stop-opacity="0"/></linearGradient><linearGradient id="paint8_linear" x1="59" x2="58.798" y1="8" y2="75.722" gradientUnits="userSpaceOnUse"><stop stop-color="#fff" stop-opacity="0"/><stop offset=".177" stop-color="#fff" stop-opacity=".5"/><stop offset=".552" stop-color="#fff"/><stop offset=".906" stop-color="#fff" stop-opacity=".5"/><stop offset="1" stop-color="#fff" stop-opacity="0"/></linearGradient><radialGradient id="paint9_radial" cx="0" cy="0" r="1" gradientTransform="translate(25.5 88) rotate(-95.1944) scale(22.0907 34.3068)" gradientUnits="userSpaceOnUse"><stop stop-color="#C7720B"/><stop offset="1" stop-color="#C7720B" stop-opacity="0"/></radialGradient><radialGradient id="paint10_radial" cx="0" cy="0" r="1" gradientTransform="translate(101 90) rotate(-150.772) scale(48.1274 74.7417)" gradientUnits="userSpaceOnUse"><stop stop-color="#C46F0C"/><stop offset="1" stop-color="#C7720B" stop-opacity="0"/></radialGradient><radialGradient id="paint11_radial" cx="0" cy="0" r="1" gradientTransform="translate(129 101.5) rotate(-146.409) scale(80.4317 124.91)" gradientUnits="userSpaceOnUse"><stop stop-color="#C46F0C"/><stop offset=".656" stop-color="#C46F0C" stop-opacity=".234"/><stop offset="1" stop-color="#C46F0C" stop-opacity="0"/></radialGradient><radialGradient id="paint12_radial" cx="0" cy="0" r="1" gradientTransform="translate(56 -12.5) rotate(71.2413) scale(27.9866 43.4631)" gradientUnits="userSpaceOnUse"><stop stop-color="#C46F0C"/><stop offset="1" stop-color="#C46F0C" stop-opacity="0"/></radialGradient><radialGradient id="paint13_radial" cx="0" cy="0" r="1" gradientTransform="translate(-6.5 -44.5) rotate(49.514) scale(80.861 125.577)" gradientUnits="userSpaceOnUse"><stop stop-color="#C46F0C"/><stop offset="1" stop-color="#C46F0C" stop-opacity="0"/></radialGradient></defs></svg>