<svg xmlns="http://www.w3.org/2000/svg" width="80" height="80" fill="none" viewBox="0 0 80 80"><mask id="mask0" width="73" height="73" x="3" y="3" mask-type="alpha" maskUnits="userSpaceOnUse"><path fill="#5353EC" fill-rule="evenodd" d="M39.5 76C59.6584 76 76 59.6584 76 39.5C76 19.3416 59.6584 3 39.5 3C19.3416 3 3 19.3416 3 39.5C3 59.6584 19.3416 76 39.5 76ZM39 58C48.9411 58 57 49.9411 57 40C57 30.0589 48.9411 22 39 22C29.0589 22 21 30.0589 21 40C21 49.9411 29.0589 58 39 58Z" clip-rule="evenodd"/></mask><g mask="url(#mask0)"><path fill="#5353EC" fill-rule="evenodd" d="M39.5 76C59.6584 76 76 59.6584 76 39.5C76 19.3416 59.6584 3 39.5 3C19.3416 3 3 19.3416 3 39.5C3 59.6584 19.3416 76 39.5 76ZM39 58C48.9411 58 57 49.9411 57 40C57 30.0589 48.9411 22 39 22C29.0589 22 21 30.0589 21 40C21 49.9411 29.0589 58 39 58Z" clip-rule="evenodd"/><rect width="23" height="105" x="28" y="-13" fill="#fff" fill-opacity=".3"/><rect width="23" height="105" x="92" y="28" fill="#fff" fill-opacity=".3" transform="rotate(90 92 28)"/></g><rect width="78" height="78" x="1" y="1" stroke="#5353EC" stroke-opacity=".35" stroke-width="2" rx="26"/><rect width="5" height="5" x="37" fill="#8787F2" rx="2"/><rect width="5" height="5" x="75" y="37" fill="#8787F2" rx="2"/><rect width="5" height="5" x="37" y="75" fill="#8787F2" rx="2"/><rect width="5" height="5" y="37" fill="#8787F2" rx="2"/></svg>